<svg width="25" height="24" viewBox="0 0 25 24" fill="none" xmlns="http://www.w3.org/2000/svg">
<g opacity="0.5">
<path d="M2.96433 9.34375C2.71579 9.34375 2.48899 9.14229 2.50041 8.87895C2.56733 7.33687 2.75481 6.33298 3.28008 5.53884C3.58228 5.08196 3.95765 4.68459 4.38923 4.36468C5.55575 3.5 7.20139 3.5 10.4927 3.5H14.5074C17.7986 3.5 19.4443 3.5 20.6108 4.36468C21.0424 4.68459 21.4177 5.08196 21.7199 5.53884C22.2452 6.33289 22.4327 7.33665 22.4996 8.87843C22.511 9.14208 22.2839 9.34375 22.0351 9.34375C20.6493 9.34375 19.5259 10.533 19.5259 12C19.5259 13.467 20.6493 14.6562 22.0351 14.6562C22.2839 14.6562 22.511 14.8579 22.4996 15.1216C22.4327 16.6634 22.2452 17.6671 21.7199 18.4612C21.4177 18.918 21.0424 19.3154 20.6108 19.6353C19.4443 20.5 17.7986 20.5 14.5074 20.5H10.4927C7.20139 20.5 5.55575 20.5 4.38923 19.6353C3.95765 19.3154 3.58228 18.918 3.28008 18.4612C2.75481 17.667 2.56733 16.6631 2.50041 15.1211C2.48899 14.8577 2.71579 14.6562 2.96433 14.6562C4.35012 14.6562 5.47352 13.467 5.47352 12C5.47352 10.533 4.35012 9.34375 2.96433 9.34375Z" stroke="white" stroke-width="1.5" stroke-linejoin="round"/>
<path d="M9.5 3.5V20.5" stroke="white" stroke-width="1.5" stroke-linecap="round" stroke-linejoin="round"/>
</g>
</svg>
