<svg width="25" height="24" viewBox="0 0 25 24" fill="none" xmlns="http://www.w3.org/2000/svg">
<g opacity="0.5">
<path d="M16.0376 18.592C14.9312 19.5 13.2875 19.5 10 19.5C6.71252 19.5 5.06878 19.5 3.96243 18.592C3.75989 18.4258 3.57418 18.2401 3.40796 18.0376C2.5 16.9312 2.5 15.2875 2.5 12C2.5 8.71252 2.5 7.06878 3.40796 5.96243C3.57418 5.75989 3.75989 5.57418 3.96243 5.40796C5.06878 4.5 6.71252 4.5 10 4.5C13.2875 4.5 14.9312 4.5 16.0376 5.40796C16.2401 5.57418 16.4258 5.75989 16.592 5.96243C17.5 7.06878 17.5 8.71252 17.5 12C17.5 15.2875 17.5 16.9312 16.592 18.0376C16.4258 18.2401 16.2401 18.4258 16.0376 18.592Z" stroke="white" stroke-width="1.5" stroke-linejoin="round"/>
<path d="M17.5 13V11L20.1 7.53333C20.3518 7.19759 20.747 7 21.1667 7C21.903 7 22.5 7.59695 22.5 8.33333V15.6667C22.5 16.403 21.903 17 21.1667 17C20.747 17 20.3518 16.8024 20.1 16.4667L17.5 13Z" stroke="white" stroke-width="1.5" stroke-linejoin="round"/>
<path d="M10 13.5C10.8284 13.5 11.5 12.8284 11.5 12C11.5 11.1716 10.8284 10.5 10 10.5M10 13.5C9.17157 13.5 8.5 12.8284 8.5 12C8.5 11.1716 9.17157 10.5 10 10.5M10 13.5V10.5" stroke="white" stroke-width="1.5" stroke-linejoin="round"/>
</g>
</svg>
