<svg width="48" height="48" viewBox="0 0 48 48" fill="none" xmlns="http://www.w3.org/2000/svg">
<path fill-rule="evenodd" clip-rule="evenodd" d="M47 24C47 36.7025 36.7025 47 24 47C18.7438 47 13.8995 45.2369 10.0261 42.2697L15.012 37.2838C16.8016 35.4942 19.5695 35.2818 22.067 35.6916C22.696 35.7948 23.3417 35.8485 24 35.8485C30.5437 35.8485 35.8485 30.5437 35.8485 24C35.8485 23.3417 35.7948 22.696 35.6916 22.067C35.2818 19.5695 35.4942 16.8016 37.2838 15.012L42.2697 10.0261C45.2369 13.8995 47 18.7438 47 24ZM6.00372 38.3239L10.8298 33.4978C12.6758 31.6518 12.8412 28.7752 12.3572 26.2098C12.2222 25.4939 12.1515 24.7552 12.1515 24C12.1515 17.4563 17.4563 12.1515 24 12.1515C24.7552 12.1515 25.4939 12.2222 26.2098 12.3572C28.7752 12.8412 31.6518 12.6758 33.4978 10.8298L38.3239 6.00372C34.3942 2.87179 29.4157 1 24 1C11.2975 1 1 11.2975 1 24C1 29.4157 2.87179 34.3942 6.00372 38.3239Z" fill="white"/>
</svg>
