<svg width="25" height="24" viewBox="0 0 25 24" fill="none" xmlns="http://www.w3.org/2000/svg">
<g opacity="0.5">
<path d="M12.5 12C11.6716 12 11 12.5596 11 13.25C11 13.9404 11.6716 14.5 12.5 14.5C13.3284 14.5 14 13.9404 14 13.25C14 12.5596 13.3284 12 12.5 12ZM12.5 12C13.3284 12 14 11.4404 14 10.75C14 10.0596 13.3284 9.5 12.5 9.5C11.6716 9.5 11 10.0596 11 10.75C11 11.4404 11.6716 12 12.5 12Z" stroke="white" stroke-width="1.5"/>
<path d="M22.5 12C22.5 17.5228 18.0228 22 12.5 22C6.97715 22 2.5 17.5228 2.5 12C2.5 6.47715 6.97715 2 12.5 2C18.0228 2 22.5 6.47715 22.5 12Z" stroke="white" stroke-width="1.5"/>
<path d="M19.5 12C19.5 15.866 16.366 19 12.5 19C8.63401 19 5.5 15.866 5.5 12C5.5 8.13401 8.63401 5 12.5 5C16.366 5 19.5 8.13401 19.5 12Z" stroke="white" stroke-width="1.5"/>
</g>
</svg>
